<?xml version="1.0" encoding="UTF-8" standalone="no"?>
<svg
   version="1.1"
   viewBox="-5 -10 512 512"
   id="svg4"
   sodipodi:docname="noun-raven-7121205.svg"
   width="512"
   height="512"
   inkscape:version="1.3.2 (091e20ef0f, 2023-11-25)"
   xmlns:inkscape="http://www.inkscape.org/namespaces/inkscape"
   xmlns:sodipodi="http://sodipodi.sourceforge.net/DTD/sodipodi-0.dtd"
   xmlns="http://www.w3.org/2000/svg"
   xmlns:svg="http://www.w3.org/2000/svg">
  <defs
     id="defs4" />
  <sodipodi:namedview
     id="namedview4"
     pagecolor="#ffffff"
     bordercolor="#000000"
     borderopacity="0.25"
     inkscape:showpageshadow="2"
     inkscape:pageopacity="0.0"
     inkscape:pagecheckerboard="0"
     inkscape:deskcolor="#d1d1d1"
     inkscape:zoom="1.0580413"
     inkscape:cx="87.425702"
     inkscape:cy="293.93939"
     inkscape:window-width="1920"
     inkscape:window-height="1012"
     inkscape:window-x="0"
     inkscape:window-y="0"
     inkscape:window-maximized="1"
     inkscape:current-layer="svg4" />
  <g
     id="g4"
     transform="matrix(5.8515215,0,0,5.8515215,-41.585715,-46.57489)">
    <path
       d="m 48.844,70.496 c 12.512,10.848 27.723,18.809 36.949,23.105 1.3359,0.62109 2.6836,-0.83203 1.9609,-2.1172 -3.082,-5.5117 -6.9102,-12.051 -11.125,-18.746 -8.8164,1.7812 -20.738,-0.13281 -27.785,-2.2422 z"
       id="path1" />
    <path
       d="m 30.984,34.379 c -5.9922,9.5977 5.8672,24.316 12.164,30.766 2.5039,0.98047 17.781,6.5977 31.582,4.6016 -12.766,-19.121 -30.5,-46.047 -43.746,-35.363 z"
       id="path2" />
    <path
       d="m 56.531,83.695 h -6.2773 v -5.3555 c 1.4727,0.42578 3.0117,0.83594 4.6016,1.1953 -1.1445,-0.83594 -2.293,-1.6875 -3.4219,-2.5703 -10.848,-8.2422 -32.496,-29.809 -23.004,-44.633 1.6367,-2.0156 4.0273,-3.1758 7.1562,-3.4727 0.53516,-0.11328 1.2969,-0.0078 1.7695,-0.11328 -3.0273,-5.9453 -0.82031,-10.805 -0.19531,-11.984 3.6016,-0.82031 6.7305,-2.3594 6.9102,-2.457 0.42188,-0.17969 0.58984,-0.76953 0.34375,-1.1445 -2.6523,-4.3242 -7.0898,-4.4688 -9.6289,-4.1094 -0.03125,-0.11328 -0.11328,-0.23047 -0.23047,-0.32812 -0.08203,-0.066406 -7.9414,-6.5664 -16.191,1.7852 -4.6484,4.7148 -8.8906,19.926 -4.4219,35.07 2.4883,8.4805 8.2031,18.715 20.973,26.262 v 11.855 h -16.27 c -0.90234,0 -1.6367,0.73438 -1.6367,1.6367 0,0.90234 0.73438,1.6367 1.6367,1.6367 h 37.887 c 2.1445,-0.05078 2.1602,-3.2266 0,-3.2734 z M 24.91,16.48 c -2.8516,-0.04687 -2.832,-4.2969 0,-4.3398 2.8555,0.03906 2.8711,4.2969 0,4.3398 z m 13.277,57.141 c 2.5664,1.4336 5.8672,2.4922 8.793,3.7656 v 6.3047 h -8.793 z"
       id="path3" />
  </g>
</svg>
