<?xml version="1.0" encoding="UTF-8" standalone="no"?>
<svg
   height="512"
   viewBox="0 -960 10240 10240"
   width="512"
   fill="#e8eaed"
   version="1.1"
   id="svg1"
   sodipodi:docname="raven_48dp_E8EAED_FILL1_wght400_GRAD0_opsz48.svg"
   inkscape:version="1.3.2 (091e20ef0f, 2023-11-25)"
   xmlns:inkscape="http://www.inkscape.org/namespaces/inkscape"
   xmlns:sodipodi="http://sodipodi.sourceforge.net/DTD/sodipodi-0.dtd"
   xmlns="http://www.w3.org/2000/svg"
   xmlns:svg="http://www.w3.org/2000/svg">
  <defs
     id="defs1" />
  <sodipodi:namedview
     id="namedview1"
     pagecolor="#ffffff"
     bordercolor="#000000"
     borderopacity="0.25"
     inkscape:showpageshadow="2"
     inkscape:pageopacity="0.0"
     inkscape:pagecheckerboard="0"
     inkscape:deskcolor="#d1d1d1"
     inkscape:zoom="1.4878705"
     inkscape:cx="218.09693"
     inkscape:cy="265.48009"
     inkscape:window-width="1920"
     inkscape:window-height="1012"
     inkscape:window-x="0"
     inkscape:window-y="0"
     inkscape:window-maximized="1"
     inkscape:current-layer="svg1" />
  <path
     d="m 3980.8,7180.8 -857.6,2060.8 -704,-294.4 768,-1856 Q 1779.2,6784 889.60002,5664 1.361875e-5,4544 1.361875e-5,3110.4 V 998.40003 Q 1.361875e-5,179.2 576.00002,-390.40001 1152,-960 1971.2,-960 q 217.6,0 422.4,51.2 204.8,51.2 409.6,140.8 L 5798.4,473.59999 3929.6,1164.8 v 972.8 l 4224,2688 H 4070.4 q -576,0 -992,-364.8 -416,-364.8 -416,-915.2 h -768 q 0,870.4 646.4,1459.2 646.4,588.8 1529.6,588.8 H 9369.6 L 9728,5824 10240,8256 H 9216 L 8729.6,7180.8 h -2688 V 9280 h -768 V 7180.8 Z M 1971.2,627.19999 q -166.4,0 -275.2,108.8 -108.8,108.8 -108.8,275.20001 0,166.4 108.8,275.2 108.8,108.8 275.2,108.8 166.4,0 268.8,-108.8 102.4,-108.8 102.4,-275.2 0,-166.40001 -102.4,-275.20001 -102.4,-108.8 -268.8,-108.8 z"
     id="path1"
     style="fill:#000000;fill-opacity:1;stroke-width:12.8" />
</svg>
