<?xml version="1.0" encoding="UTF-8" standalone="no"?>
<svg
   viewBox="0 0 512 512"
   x="0px"
   y="0px"
   version="1.1"
   id="svg2"
   sodipodi:docname="noun-raven-6064052.svg"
   width="512"
   height="512"
   inkscape:version="1.3.2 (091e20ef0f, 2023-11-25)"
   xmlns:inkscape="http://www.inkscape.org/namespaces/inkscape"
   xmlns:sodipodi="http://sodipodi.sourceforge.net/DTD/sodipodi-0.dtd"
   xmlns="http://www.w3.org/2000/svg"
   xmlns:svg="http://www.w3.org/2000/svg">
  <defs
     id="defs2" />
  <sodipodi:namedview
     id="namedview2"
     pagecolor="#ffffff"
     bordercolor="#000000"
     borderopacity="0.25"
     inkscape:showpageshadow="2"
     inkscape:pageopacity="0.0"
     inkscape:pagecheckerboard="0"
     inkscape:deskcolor="#d1d1d1"
     inkscape:zoom="1.1902964"
     inkscape:cx="157.52379"
     inkscape:cy="274.72149"
     inkscape:window-width="1920"
     inkscape:window-height="1012"
     inkscape:window-x="0"
     inkscape:window-y="0"
     inkscape:window-maximized="1"
     inkscape:current-layer="svg2" />
  <g
     data-name="1"
     id="g1"
     transform="matrix(6.3317036,0,0,6.3317036,-47.730495,-47.983888)">
    <path
       d="M 85.24,80 A 6.43,6.43 0 0 0 84.73,79.08 1.2,1.2 0 0 0 84.56,78.87 6.71,6.71 0 0 0 81.16,77 1.63,1.63 0 0 0 80.85,77 c -1.11,-0.2 -2.43,-0.35 -3.61,-0.49 l -1.86,-0.24 c -0.59,-0.11 -2.52,-1.45 -6,-5.76 -0.42,-0.52 -0.78,-0.94 -1.08,-1.3 -1.06,-1.26 -1.12,-1.37 -1.12,-2 A 24.82,24.82 0 0 1 68,62.56 c 0.15,-0.7 0.3,-1.38 0.43,-2 C 81.57,54 86.24,44.3 82.26,31.84 L 81.49,25.18 C 80.74,17.86 77.34,12.05 72.16,9.26 A 14.75,14.75 0 0 0 58.33,9.34 c -7.48,-1 -12.82,0.52 -15.87,4.42 a 1.5,1.5 0 0 0 -0.2,1.5 1.46,1.46 0 0 0 1.2,0.91 c 0.62,0.08 1.21,0.14 1.78,0.2 a 32.12,32.12 0 0 1 6.36,1.17 c 3.09,0.89 6.15,3.89 5.45,6.44 a 1.54,1.54 0 0 0 0.06,0.95 l -0.73,0.41 a 2.34,2.34 0 0 0 -0.31,0.24 4.66,4.66 0 0 1 -0.56,0.51 92.78,92.78 0 0 0 -11.72,11 c -1.78,2 -4.19,4.6 -6.74,7.3 -5.45,5.8 -11.62,12.37 -14.55,16.8 a 1.51,1.51 0 0 0 0.56,2.16 5.13,5.13 0 0 0 2.7,0.49 c -0.57,0.69 -1.21,1.44 -1.87,2.23 -6.73,8 -12.36,14.87 -13.15,18 a 3.17,3.17 0 0 0 1.7,3.83 6.34,6.34 0 0 0 2.69,0.54 c 5.84,0 13.61,-6 14.6,-6.8 0.7,-0.55 1.42,-1.14 2.15,-1.76 A 1.43,1.43 0 0 0 32.26,80.66 1.48,1.48 0 0 0 34,81 l 2.69,-1.35 0.13,-0.07 a 24.91,24.91 0 0 0 3.48,-2.69 39.57,39.57 0 0 1 6.1,-4.54 L 48,73 a 48.28,48.28 0 0 1 5.19,5.48 l 0.11,0.13 c -0.89,1.22 -1.54,2.43 -1.07,3.84 a 1.5,1.5 0 0 0 2.61,0.44 l 0.15,-0.2 0.19,-0.26 A 2.6,2.6 0 0 0 57,83 a 1.07,1.07 0 0 0 0.25,0 c 2,-0.29 6.1,-0.74 8.12,-0.81 L 65.16,81.82 A 0.75,0.75 0 0 1 65.09,81.7 L 61.94,75 58,70.22 a 1.5000833,1.5000833 0 0 1 2.33,-1.89 l 4,4.92 a 1.32,1.32 0 0 1 0.2,0.32 l 3.17,6.83 1.07,1.82 a 1.44,1.44 0 0 0 0.91,-0.54 4.46,4.46 0 0 0 0.84,0.16 2.84,2.84 0 0 0 0.82,0 h 0.49 0.19 0.18 v 0 a 1.5,1.5 0 0 0 1.66,0 L 75.2,82 c 0.66,0.09 1.34,0.18 2,0.21 a 1.53,1.53 0 0 0 1.48,-0.9 6.79,6.79 0 0 1 1.12,0.14 l 0.42,0.12 a 5.77,5.77 0 0 0 1.1,0.23 3,3 0 0 0 1.43,-0.19 l 0.31,0.22 A 1.5,1.5 0 0 0 85.24,80 Z M 64.18,16.46 a 1.5,1.5 0 1 1 0.87,-2.87 l 3.21,1 a 1.5,1.5 0 0 1 -0.43,2.93 1.61,1.61 0 0 1 -0.44,-0.06 z"
       id="path1" />
  </g>
</svg>
