<?xml version="1.0" encoding="UTF-8" standalone="no"?>
<svg
   viewBox="0 0 512 512"
   x="0px"
   y="0px"
   version="1.1"
   id="svg6"
   sodipodi:docname="noun-bird-4322902.svg"
   width="512"
   height="512"
   inkscape:version="1.3.2 (091e20ef0f, 2023-11-25)"
   xmlns:inkscape="http://www.inkscape.org/namespaces/inkscape"
   xmlns:sodipodi="http://sodipodi.sourceforge.net/DTD/sodipodi-0.dtd"
   xmlns="http://www.w3.org/2000/svg"
   xmlns:svg="http://www.w3.org/2000/svg">
  <defs
     id="defs6" />
  <sodipodi:namedview
     id="namedview6"
     pagecolor="#ffffff"
     bordercolor="#000000"
     borderopacity="0.25"
     inkscape:showpageshadow="2"
     inkscape:pageopacity="0.0"
     inkscape:pagecheckerboard="0"
     inkscape:deskcolor="#d1d1d1"
     inkscape:zoom="0.89272231"
     inkscape:cx="158.50394"
     inkscape:cy="287.88347"
     inkscape:window-width="1920"
     inkscape:window-height="1012"
     inkscape:window-x="0"
     inkscape:window-y="0"
     inkscape:window-maximized="1"
     inkscape:current-layer="svg6" />
  <g
     id="g6"
     transform="matrix(9.3090805,0,0,9.3090805,-34.164039,-55.854483)">
    <path
       d="m 34.33,38.85 v 0 c 4.64,3 14,0.41 21.27,-5.64 A 120.59,120.59 0 0 1 28.32,28.4 12.25,12.25 0 0 0 34.33,38.85 Z"
       id="path1" />
    <path
       d="M 28.17,26.27 A 124.39,124.39 0 0 0 52.85,31 H 53 53.5 L 32.82,21.15 a 12.05,12.05 0 0 1 -4.65,5.12 z"
       id="path2" />
    <path
       d="m 9.8,18 a 48.58,48.58 0 0 1 0.41,-6.21 L 5,15 Z"
       id="path3" />
    <path
       d="M 22,26 A 10,10 0 1 0 12,16 10,10 0 0 0 22,26 Z M 20,11 a 2,2 0 1 1 -2,2 2,2 0 0 1 2,-2 z"
       id="path4" />
    <path
       d="m 37.14,56.91 4,-8.89 A 54.19,54.19 0 0 0 57.34,41.8 L 52.4,37.92 c -4.45,2.67 -9.16,4.16 -13.14,4.16 a 11.06,11.06 0 0 1 -6,-1.55 v 0 C 28.4,37.39 25.8,32.27 26.44,27.15 a 12,12 0 0 1 -12.83,-2.6 17.3,17.3 0 0 0 -0.43,1.79 c -1.14,6.37 1.2,13.19 6.26,18.25 2.52,2.52 6.48,3.91 11.19,4.24 L 27.36,56 H 23 a 1,1 0 0 0 0,2 h 2 l -1.6,1.2 a 1,1 0 0 0 -0.2,1.4 1,1 0 0 0 0.8,0.4 1,1 0 0 0 0.6,-0.2 l 3.15,-2.37 1.42,2.12 A 1,1 0 0 0 30,61 a 0.94,0.94 0 0 0 0.55,-0.17 1,1 0 0 0 0.28,-1.38 l -1.69,-2.54 3.64,-8 a 40.77,40.77 0 0 0 6,-0.47 L 35.36,56 H 31 a 1,1 0 0 0 0,2 h 2 l -1.6,1.2 a 1,1 0 0 0 -0.2,1.4 1,1 0 0 0 0.8,0.4 1,1 0 0 0 0.6,-0.2 l 3.15,-2.37 1.42,2.12 A 1,1 0 0 0 38,61 a 0.94,0.94 0 0 0 0.55,-0.17 1,1 0 0 0 0.28,-1.38 z"
       id="path5" />
  </g>
</svg>
