<?xml version="1.0" encoding="UTF-8" standalone="no"?>
<svg
   version="1.1"
   x="0px"
   y="0px"
   viewBox="0 0 512 512"
   xml:space="preserve"
   id="svg3"
   sodipodi:docname="noun-crow-693860.svg"
   width="512"
   height="512"
   inkscape:version="1.3.2 (091e20ef0f, 2023-11-25)"
   xmlns:inkscape="http://www.inkscape.org/namespaces/inkscape"
   xmlns:sodipodi="http://sodipodi.sourceforge.net/DTD/sodipodi-0.dtd"
   xmlns="http://www.w3.org/2000/svg"
   xmlns:svg="http://www.w3.org/2000/svg"><defs
     id="defs3" /><sodipodi:namedview
     id="namedview3"
     pagecolor="#ffffff"
     bordercolor="#000000"
     borderopacity="0.25"
     inkscape:showpageshadow="2"
     inkscape:pageopacity="0.0"
     inkscape:pagecheckerboard="0"
     inkscape:deskcolor="#d1d1d1"
     inkscape:zoom="1.1902964"
     inkscape:cx="183.56772"
     inkscape:cy="294.88453"
     inkscape:window-width="1920"
     inkscape:window-height="1012"
     inkscape:window-x="0"
     inkscape:window-y="0"
     inkscape:window-maximized="1"
     inkscape:current-layer="svg3" /><g
     id="g2"
     transform="matrix(21.332527,0,0,21.332527,0.00117427,0.00676024)"><g
       id="g1"><path
         d="M 23.939,22.63 C 23.268,21.403 21.121,20.088 19.396,19.032 18.698,18.605 18.039,18.201 17.854,18.016 17.452,17.614 16.903,16.403 16.208,14.869 15.848,14.074 15.435,13.162 14.951,12.153 14.108,10.397 12.555,8.482 11.186,6.792 10.154,5.519 9.179,4.317 8.974,3.709 8.102,1.127 5.779,0.853 4.601,0.865 3.162,0.21 1.829,-0.186 0.318,0.403 0.129,0.477 0.003,0.658 0,0.861 c -0.003,0.203 0.117,0.388 0.304,0.467 0.41,0.174 0.697,0.58 1,1.009 0.362,0.512 0.794,1.124 1.533,1.396 -1.525,4.457 -0.931,8.472 1.768,11.942 0.562,0.722 1.431,1.303 2.402,1.787 0.13,0.79 -0.1,2.45 -0.685,4.021 L 4.853,20.014 c -0.195,-0.195 -0.512,-0.195 -0.707,0 -0.195,0.195 -0.195,0.512 0,0.707 L 4.87,21.445 2.621,20.883 c -0.269,-0.07 -0.539,0.095 -0.606,0.364 -0.067,0.268 0.096,0.539 0.364,0.606 l 2.335,0.584 -1.372,0.457 c -0.262,0.087 -0.403,0.37 -0.316,0.632 0.07,0.209 0.265,0.342 0.474,0.342 0.052,0 0.105,-0.008 0.158,-0.026 L 6.581,22.868 H 8.5 c 0.276,0 0.5,-0.224 0.5,-0.5 0,-0.276 -0.224,-0.5 -0.5,-0.5 H 7.246 c 0.507,-1.35 0.806,-2.849 0.794,-3.941 1.153,0.471 2.354,0.832 3.331,1.121 0.227,0.067 0.434,0.129 0.63,0.188 v 1.322 L 10.725,19.92 c -0.247,-0.123 -0.546,-0.023 -0.671,0.224 -0.124,0.247 -0.023,0.547 0.224,0.671 l 0.625,0.312 -1.483,0.247 c -0.272,0.045 -0.457,0.303 -0.411,0.575 0.045,0.272 0.302,0.46 0.575,0.411 l 2.031,-0.338 -0.061,0.122 c -0.124,0.247 -0.023,0.547 0.224,0.671 0.072,0.036 0.148,0.053 0.223,0.053 0.184,0 0.36,-0.101 0.448,-0.276 l 0.19,-0.38 0.509,0.509 c 0.098,0.098 0.226,0.146 0.354,0.146 0.128,0 0.256,-0.049 0.354,-0.146 0.195,-0.195 0.195,-0.512 0,-0.707 L 13.002,21.16 v -1.421 c 0.484,0.409 0.961,1.039 1.427,1.66 0.888,1.184 1.807,2.409 3.049,2.467 0.268,0.013 0.589,0.019 0.942,0.019 0.869,0 1.589,-0.019 2.205,-0.049 -1.024,-0.725 -2.066,-1.64 -3.025,-2.486 -0.717,-0.632 -1.395,-1.229 -1.887,-1.575 -0.226,-0.159 -0.28,-0.471 -0.122,-0.697 0.159,-0.226 0.471,-0.28 0.697,-0.122 0.537,0.378 1.203,0.964 1.973,1.643 1.23,1.084 2.73,2.401 4.02,3.096 1.57,-0.212 1.664,-0.548 1.704,-0.709 C 24.017,22.87 24,22.74 23.939,22.63 Z M 6.001,2.37 c 0.276,0 0.5,0.224 0.5,0.5 0,0.276 -0.224,0.5 -0.5,0.5 -0.276,0 -0.5,-0.224 -0.5,-0.5 0,-0.276 0.224,-0.5 0.5,-0.5 z m 8.828,13.878 c -0.483,0.419 -1.17,0.646 -1.929,0.646 -0.149,0 -0.302,-0.009 -0.456,-0.027 C 8.713,16.436 5.835,13.271 5.022,10.512 4.944,10.247 5.095,9.969 5.36,9.891 c 0.271,-0.079 0.543,0.074 0.621,0.338 0.619,2.1 3.069,5.24 6.578,5.645 0.661,0.076 1.248,-0.063 1.615,-0.381 0.208,-0.181 0.523,-0.158 0.706,0.05 0.18,0.208 0.157,0.524 -0.051,0.705 z"
         id="path1" /></g></g></svg>
