<?xml version="1.0" encoding="UTF-8" standalone="no"?>
<svg
   viewBox="0 0 512 512"
   x="0px"
   y="0px"
   version="1.1"
   id="svg2"
   sodipodi:docname="noun-crow-6201570.svg"
   width="512"
   height="512"
   inkscape:version="1.3.2 (091e20ef0f, 2023-11-25)"
   xmlns:inkscape="http://www.inkscape.org/namespaces/inkscape"
   xmlns:sodipodi="http://sodipodi.sourceforge.net/DTD/sodipodi-0.dtd"
   xmlns="http://www.w3.org/2000/svg"
   xmlns:svg="http://www.w3.org/2000/svg">
  <defs
     id="defs2" />
  <sodipodi:namedview
     id="namedview2"
     pagecolor="#ffffff"
     bordercolor="#000000"
     borderopacity="0.25"
     inkscape:showpageshadow="2"
     inkscape:pageopacity="0.0"
     inkscape:pagecheckerboard="0"
     inkscape:deskcolor="#d1d1d1"
     inkscape:zoom="0.84166667"
     inkscape:cx="74.257426"
     inkscape:cy="340.9901"
     inkscape:window-width="1920"
     inkscape:window-height="1012"
     inkscape:window-x="0"
     inkscape:window-y="0"
     inkscape:window-maximized="1"
     inkscape:current-layer="svg2" />
  <g
     data-name="1"
     id="g1"
     transform="matrix(6.2484701,0,0,6.2484701,-43.85121,-43.738945)">
    <path
       d="m 88.42,26.34 a 1.48,1.48 0 0 1 -0.75,1.3 l -8.27,4.78 a 6.94,6.94 0 0 1 -7,0 7.0111073,7.0111073 0 0 1 7,-12.15 l 8.27,4.78 a 1.47,1.47 0 0 1 0.75,1.29 z m -8.85,9.31 c 3.24,6 5.48,14.51 -0.48,22.88 -4.1,5.75 -11.44,11.37 -19.77,16 l 1.14,5.13 a 1.09,1.09 0 0 0 1.08,0.86 h 2.27 a 16.62,16.62 0 0 1 12.13,5.27 c 0.64,0.68 1.43,1.52 0.64,2.56 a 1.51,1.51 0 0 1 -1.2,0.59 h -0.29 c -0.92,-0.07 -7.53,-0.07 -17.36,0 a 4,4 0 0 1 -1.11,-0.16 v 0.13 h -4.1 v 0 a 4.08,4.08 0 0 1 -3.9,-2.86 l -1.77,-5.53 a 87.08,87.08 0 0 1 -17,5.12 c 2.49,-1.13 4.07,-2 4.27,-2.13 A 1.5026809,1.5026809 0 1 0 32.63,80.9 C 32.5,80.97 21.56,87.12 9.94,88.23 a 1.57,1.57 0 0 1 0,-0.86 131.93,131.93 0 0 0 13.41,-9.2 1.4940967,1.4940967 0 1 0 -1.82,-2.37 139.6,139.6 0 0 1 -11.55,8 11.59,11.59 0 0 1 -1.22,-0.16 1.51,1.51 0 0 1 -1.2,-1.35 1.49,1.49 0 0 1 1,-1.52 31.22,31.22 0 0 0 9.5,-6.69 c 9.18,-0.42 30,-4 44.64,-26.13 A 1.5,1.5 0 0 0 60.2,46.3 C 47.73,65.31 30.51,69.91 20.92,70.94 a 39.06,39.06 0 0 0 5,-8.22 c 1.12,-2.48 2.13,-5 3.11,-7.35 C 33.61,44.18 37.6,34.42 49.5,31.21 A 15.67,15.67 0 0 1 62.68,7 15.78,15.78 0 0 1 77,16.39 a 10.57,10.57 0 0 0 -1.14,-0.07 10.06,10.06 0 0 0 -5,1.35 10,10 0 0 0 0,17.35 10.06,10.06 0 0 0 5,1.35 9.88,9.88 0 0 0 3.71,-0.72 z M 51.39,78.58 q -0.9,0.42 -1.8,0.81 l 1.85,5.79 a 1.08,1.08 0 0 0 1,0.77 h 1.26 z m 11.76,-59.1 a 3.86,3.86 0 1 0 -3.86,3.85 3.86,3.86 0 0 0 3.86,-3.85 z"
       id="path1" />
  </g>
</svg>
