<?xml version="1.0" encoding="UTF-8" standalone="no"?>
<!-- Created with Inkscape (http://www.inkscape.org/) -->

<svg
   width="640"
   height="640"
   viewBox="0 0 640 640"
   version="1.1"
   id="svg5"
   xml:space="preserve"
   inkscape:export-filename="icon_src.png"
   inkscape:export-xdpi="153.60001"
   inkscape:export-ydpi="153.60001"
   inkscape:version="1.3.2 (091e20ef0f, 2023-11-25, custom)"
   sodipodi:docname="icon_drawing.svg"
   xmlns:inkscape="http://www.inkscape.org/namespaces/inkscape"
   xmlns:sodipodi="http://sodipodi.sourceforge.net/DTD/sodipodi-0.dtd"
   xmlns="http://www.w3.org/2000/svg"
   xmlns:svg="http://www.w3.org/2000/svg"><sodipodi:namedview
     id="namedview7"
     pagecolor="#000000"
     bordercolor="#eeeeee"
     borderopacity="0"
     inkscape:showpageshadow="0"
     inkscape:pageopacity="1"
     inkscape:pagecheckerboard="true"
     inkscape:deskcolor="#505050"
     inkscape:document-units="mm"
     showgrid="false"
     showborder="false"
     borderlayer="false"
     inkscape:zoom="0.2142805"
     inkscape:cx="-266.00647"
     inkscape:cy="214.67189"
     inkscape:window-width="1908"
     inkscape:window-height="1026"
     inkscape:window-x="4"
     inkscape:window-y="4"
     inkscape:window-maximized="1"
     inkscape:current-layer="layer1"
     inkscape:export-bgcolor="#ffffff00" /><defs
     id="defs2" /><g
     inkscape:groupmode="layer"
     id="layer3"
     inkscape:label="Layer 2" /><g
     inkscape:label="Layer 1"
     inkscape:groupmode="layer"
     id="layer1"><rect
       style="fill:#ffffff;fill-opacity:1;stroke-width:14.9567;paint-order:markers fill stroke"
       id="rect1"
       width="2418.8977"
       height="2418.8977"
       x="-889.44885"
       y="-889.44885" /><path
       d="m 320.00001,-587.08669 c -501.92128,0 -907.08661,405.16535 -907.08661,907.08661 0,499.90553 405.16533,907.08678 907.08661,907.08678 501.92127,0 907.08659,-407.18124 907.08659,-907.08677 0,-501.92126 -405.16532,-907.08661 -907.08659,-907.08662 z m 590.61413,794.20467 c 0,26.20475 -12.09446,48.378 -34.26772,72.567 l -209.63777,203.59055 50.39374,312.441 c 10.07872,72.56692 -70.55117,112.8819 -141.10243,74.58267 L 317.98427,735.24407 57.952753,870.29919 C -8.56693,910.61409 -93.22835,856.1889 -79.11811,773.54327 c 0,0 0,-2.01574 52.40945,-292.28349 -189.48032,-185.44877 -211.65355,-205.60629 -211.65355,-205.60629 -8.06299,-10.07871 -32.25199,-34.26771 -32.25199,-70.55125 0,-46.36217 32.25199,-82.64571 84.66144,-90.70869 L 106.33068,72.062868 235.33856,-192.00014 c 18.14177,-36.28346 50.39374,-58.45663 84.66145,-58.45663 34.26772,0 66.51969,22.17317 84.66138,60.47246 l 131.02363,260.031435 288.252,46.362175 c 52.4094,8.06305 86.67712,44.34651 86.67712,90.70868 z"
       id="path1"
       style="fill:#56949c;fill-opacity:1;stroke-width:20.1575" /></g><ellipse
     style="fill:#ffffff;fill-opacity:1;stroke-width:0;paint-order:markers fill stroke"
     id="path2"
     cx="143.85699"
     cy="67.676384"
     rx="5.3190031"
     ry="0.45122066" /></svg>
