<?xml version="1.0" encoding="UTF-8" standalone="no"?>
<!-- Created with Inkscape (http://www.inkscape.org/) -->

<svg
   width="640"
   height="640"
   viewBox="0 0 169.33333 169.33333"
   version="1.1"
   id="svg5"
   xml:space="preserve"
   inkscape:export-filename="icon_src.png"
   inkscape:export-xdpi="153.60001"
   inkscape:export-ydpi="153.60001"
   inkscape:version="1.2.2 (b0a8486541, 2022-12-01)"
   sodipodi:docname="icon_drawing.svg"
   xmlns:inkscape="http://www.inkscape.org/namespaces/inkscape"
   xmlns:sodipodi="http://sodipodi.sourceforge.net/DTD/sodipodi-0.dtd"
   xmlns:xlink="http://www.w3.org/1999/xlink"
   xmlns="http://www.w3.org/2000/svg"
   xmlns:svg="http://www.w3.org/2000/svg"><sodipodi:namedview
     id="namedview7"
     pagecolor="#191724"
     bordercolor="#eeeeee"
     borderopacity="0"
     inkscape:showpageshadow="0"
     inkscape:pageopacity="1"
     inkscape:pagecheckerboard="true"
     inkscape:deskcolor="#505050"
     inkscape:document-units="mm"
     showgrid="false"
     showborder="false"
     borderlayer="false"
     inkscape:zoom="0.88658853"
     inkscape:cx="262.80511"
     inkscape:cy="297.20664"
     inkscape:window-width="1908"
     inkscape:window-height="1026"
     inkscape:window-x="4"
     inkscape:window-y="4"
     inkscape:window-maximized="1"
     inkscape:current-layer="layer1" /><defs
     id="defs2"><linearGradient
       inkscape:collect="always"
       id="linearGradient2588"><stop
         style="stop-color:#92bfb1;stop-opacity:1;"
         offset="0"
         id="stop2584" /><stop
         style="stop-color:#ebbcba;stop-opacity:1;"
         offset="1"
         id="stop2586" /></linearGradient><linearGradient
       inkscape:collect="always"
       xlink:href="#linearGradient2588"
       id="linearGradient2590"
       x1="39.089168"
       y1="84.666725"
       x2="130.24416"
       y2="84.666725"
       gradientUnits="userSpaceOnUse" /></defs><g
     inkscape:groupmode="layer"
     id="layer3"
     inkscape:label="Layer 2" /><g
     inkscape:label="Layer 1"
     inkscape:groupmode="layer"
     id="layer1"><path
       style="fill:url(#linearGradient2590);fill-opacity:1;stroke-width:0.207442;stroke-dasharray:none"
       d="m 109.64721,148.27865 c -1.41659,-0.34187 -1.63924,-0.6318 -2.15859,-2.81082 -0.37036,-1.55395 -0.73292,-1.95187 -2.51676,-2.76218 -1.74751,-0.79382 -1.90269,-0.98803 -2.17851,-2.72638 l -0.14788,-0.93202 -0.37706,1.51409 c -0.43767,1.7575 -1.40513,3.68084 -2.26666,4.50625 -0.753525,0.72192 -0.935515,0.55819 -0.642045,-0.57762 0.21489,-0.83171 0.34578,-2.69747 0.27416,-3.90788 -0.0269,-0.45544 -0.67889,-1.01705 -1.18062,-1.01705 -0.0516,0 -0.10044,0.67571 -0.10855,1.50159 -0.008,0.82587 -0.0852,2.2472 -0.17135,3.15851 -0.14645,1.54942 -0.12534,1.6949 0.32541,2.24238 0.26512,0.322 0.48203,0.66153 0.48203,0.75452 0,0.60312 -1.81298,0.0576 -2.54459,-0.76568 -1.187985,-1.33681 -2.685285,-4.85472 -2.318735,-5.44782 0.1804,-0.29189 -0.29123,-4.19551 -0.536531,-4.44081 -0.141277,-0.14127 -0.267237,-0.11612 -0.386739,0.0772 -0.295336,0.47786 -2.320941,0.3708 -3.194058,-0.16882 -0.981339,-0.60649 -1.638509,-0.32146 -1.542555,0.66905 0.05291,0.54614 0.161676,0.67061 0.633442,0.7249 1.151014,0.13244 0.403394,1.48782 -0.820669,1.48782 -0.798049,0 -1.964039,-1.22847 -2.660322,-2.80289 -0.266149,-0.60182 -0.582078,-1.15488 -0.702061,-1.22904 -0.119981,-0.0742 -0.218146,-0.50443 -0.218146,-0.95618 0,-0.69586 -0.08303,-0.85293 -0.543373,-1.02795 -0.437295,-0.16626 -0.599021,-0.13494 -0.828436,0.16046 -0.26746,0.34438 -0.311336,0.3324 -0.710319,-0.1939 -0.464251,-0.61239 -3.164555,-2.64934 -3.512135,-2.64934 -0.126712,0 -0.08532,0.25194 0.100388,0.61106 0.388607,0.75149 0.391467,0.83875 0.02748,0.83875 -0.158684,0 -0.343474,-0.14323 -0.410649,-0.31828 -0.09716,-0.25321 -0.328938,-0.29085 -1.133597,-0.18411 -0.975246,0.12937 -1.071202,0.0933 -2.680163,-1.00864 -0.917784,-0.62855 -2.165172,-1.28845 -2.771973,-1.46644 -1.22224,-0.35851 -4.119285,-1.94482 -4.93105,-2.70006 -0.751631,-0.69929 -1.324962,-0.95016 -2.171449,-0.95016 -0.44006,0 -0.789628,-0.11624 -0.853998,-0.28398 -0.06833,-0.17807 -0.432827,-0.28401 -0.977297,-0.28404 -0.477575,-3e-5 -1.660538,-0.0691 -2.628802,-0.15359 l -1.760479,-0.15353 -2.661301,1.36959 c -2.741099,1.41065 -3.382748,1.62223 -3.160085,1.04198 0.06914,-0.18019 0.125716,-0.4598 0.125716,-0.62135 0,-0.16155 0.195128,-0.29373 0.433621,-0.29373 0.259434,0 0.477133,-0.1664 0.541943,-0.41423 0.07307,-0.27941 0.28584,-0.41638 0.653735,-0.42082 0.299977,-0.004 0.726326,-0.14343 0.947449,-0.31067 0.221121,-0.16725 0.570627,-0.30409 0.776682,-0.30409 0.505415,0 0.476345,-0.35404 -0.04259,-0.51874 -0.648075,-0.20569 -0.30517,-0.46649 0.958215,-0.72876 0.635305,-0.13189 1.469502,-0.37117 1.853772,-0.53173 0.384273,-0.16056 0.969864,-0.29192 1.301313,-0.29192 0.331452,0 0.718664,-0.13981 0.860473,-0.31068 0.372356,-0.44865 0.561522,-0.38577 0.778756,0.2589 0.188394,0.55907 0.194693,0.56098 0.341889,0.10356 0.185711,-0.57711 0.465908,-0.59978 0.639837,-0.0518 0.134913,0.42507 0.517787,0.57822 0.517787,0.20711 0,-0.37627 0.383767,-0.21515 0.521554,0.21898 0.07438,0.23436 0.360267,0.51165 0.635302,0.61622 0.275037,0.10457 0.500068,0.33224 0.500068,0.50593 0,0.48589 0.37684,0.37409 0.451604,-0.13399 0.09084,-0.61738 0.516974,-0.70892 0.694618,-0.14922 0.128601,0.40518 0.168532,0.41874 0.33854,0.11495 0.268248,-0.47932 0.480621,-0.43061 0.755819,0.17338 0.129757,0.28479 0.358013,0.51779 0.507241,0.51779 0.149228,0 0.636939,0.1864 1.08381,0.41423 0.930373,0.47433 1.277535,0.51681 1.392991,0.17045 0.139891,-0.41968 0.455706,-0.0414 0.879092,1.05305 0.533601,1.37932 0.938204,1.3876 0.938204,0.0192 0,-0.56956 0.08233,-1.03557 0.18296,-1.03557 0.221543,0 0.431699,0.7245 0.435557,1.50158 0.0034,0.68746 0.312097,0.74947 0.515488,0.10356 0.134924,-0.42847 0.160009,-0.4107 0.311441,0.22065 0.09058,0.37766 0.383487,0.91955 0.650901,1.2042 l 0.486212,0.51755 0.174384,-0.67298 c 0.132884,-0.51282 0.219149,-0.60224 0.362471,-0.37574 0.103449,0.16348 0.189516,0.49553 0.191259,0.73788 0.0016,0.24236 0.157015,0.56833 0.345049,0.72439 0.312454,0.25931 0.329184,0.19911 0.194424,-0.69955 -0.09942,-0.66299 -0.07374,-0.98327 0.07885,-0.98327 0.124468,0 0.269984,0.1398 0.323363,0.31067 0.05338,0.17087 0.158084,0.47378 0.23267,0.67312 0.129153,0.3452 0.139737,0.3452 0.2223,0 0.121319,-0.50722 0.571328,-0.45168 0.839113,0.10356 0.211987,0.43955 0.225544,0.42779 0.238765,-0.20711 0.02236,-1.073 0.635363,-0.70696 0.635363,0.37939 0,0.57425 0.258439,0.48647 0.663493,-0.22537 0.409328,-0.71934 0.704678,-0.7893 0.888407,-0.21042 0.120732,0.3804 0.325826,0.46702 2.279735,0.96285 1.058957,0.26873 1.605925,0.59908 1.810501,1.09349 0.179464,0.43373 0.238884,0.46739 0.308433,0.17477 0.122287,-0.51451 1.027628,-0.47528 1.194908,0.0518 0.07231,0.22782 0.264994,0.41422 0.428189,0.41422 0.163192,0 0.296717,0.11102 0.296717,0.24671 0,0.15257 0.09878,0.12517 0.258892,-0.0718 0.426434,-0.5246 1.764072,-1.23868 3.016729,-1.61045 0.946433,-0.28089 1.18193,-0.43767 1.200671,-0.79934 0.02021,-0.39013 -0.213728,-0.52196 -1.760479,-0.99208 -0.981086,-0.29819 -2.576013,-0.84841 -3.544277,-1.2227 -1.350139,-0.52192 -2.236975,-0.71518 -3.804785,-0.82914 -1.718016,-0.12488 -2.059829,-0.20794 -2.141537,-0.5204 -0.07334,-0.28043 -0.588904,-0.48525 -2.097998,-0.8335 -2.434598,-0.5618 -3.864991,-1.17232 -4.926282,-2.10262 -0.44141,-0.38693 -1.323655,-0.95203 -1.960544,-1.25579 -1.545365,-0.73705 -2.623172,-2.04168 -2.711889,-3.2826 -0.05889,-0.82371 -0.121415,-0.92015 -0.634889,-0.97923 -0.589291,-0.0678 -0.82156,-0.65937 -0.258892,-0.65937 0.498139,0 0.363241,-0.37546 -0.414232,-1.15294 -0.460367,-0.46037 -0.724903,-0.92336 -0.724903,-1.26874 0,-0.7258 -1.440476,-2.60647 -2.312738,-3.0195 -0.819328,-0.38796 -3.036811,-0.67094 -3.785357,-0.48307 -0.5343,0.1341 -0.741148,0.79829 -0.328107,1.05357 0.244948,0.15139 0.626808,1.49968 0.822203,2.90309 l 0.144182,1.03558 0.250153,-0.8715 c 0.293693,-1.02318 0.617051,-1.29466 0.968907,-0.81347 0.148553,0.20316 0.392004,0.29255 0.589923,0.2166 0.41008,-0.15736 0.417729,0.0588 0.02633,0.74346 -0.162796,0.28478 -0.299297,0.78038 -0.303332,1.10132 -0.0063,0.50286 0.05382,0.56411 0.435094,0.4431 0.391721,-0.12433 0.427242,-0.0799 0.309912,0.38758 -0.07289,0.2904 -0.03898,0.58582 0.07536,0.65647 0.3327,0.20563 0.240173,0.72661 -0.154578,0.87038 -0.199347,0.0726 -0.668602,0.39588 -1.042783,0.7184 -0.374182,0.32252 -0.746988,0.59447 -0.828461,0.60433 -0.08147,0.01 -1.17335,0.0332 -2.426398,0.0518 -2.004973,0.0298 -2.414916,0.10009 -3.417401,0.58605 -0.626525,0.30371 -2.323005,1.12092 -3.769955,1.81602 -1.446951,0.6951 -2.687066,1.35482 -2.755813,1.46606 -0.06875,0.11123 -0.306205,0.29923 -0.527688,0.41776 -0.332359,0.17787 -0.402695,0.14762 -0.402695,-0.17319 0,-0.2559 0.68994,-0.87697 2.019374,-1.8178 1.771999,-1.25404 2.380943,-1.54935 4.970928,-2.41066 2.397567,-0.79732 3.12058,-0.95839 3.852095,-0.85812 0.716539,0.0982 0.926952,0.0546 1.029787,-0.21336 0.228196,-0.59468 -0.104269,-1.57357 -0.67165,-1.97758 -0.576749,-0.41068 -1.30266,-1.81281 -1.668049,-3.2219 -0.118153,-0.45565 -0.39142,-1.05628 -0.607259,-1.33471 l -0.392435,-0.50626 -0.731618,0.55803 c -1.420397,1.08339 -1.826662,0.63292 -1.174671,-1.30248 0.239858,-0.71201 0.385244,-1.34543 0.32308,-1.40759 -0.06217,-0.0622 -0.350811,-0.005 -0.641437,0.12773 -0.290624,0.13242 -0.570624,0.24076 -0.622221,0.24076 -0.190783,0 -0.08648,-1.42989 0.113303,-1.55337 0.404363,-0.24991 0.195064,-0.52902 -0.73582,-0.98128 -0.847648,-0.41182 -0.906438,-0.4848 -0.58176,-0.72221 0.316939,-0.23176 0.268417,-0.2641 -0.396184,-0.2641 -0.477624,0 -1.249056,-0.27027 -2.088574,-0.73173 -0.858618,-0.47195 -1.886085,-0.82821 -2.894171,-1.00352 -1.447355,-0.25169 -2.62368,-0.75422 -2.62368,-1.12086 0,-0.27671 1.749928,-0.20815 2.169017,0.085 0.224695,0.15716 0.644105,0.28715 0.932019,0.28887 0.287917,0.002 0.896289,0.13743 1.351944,0.30158 1.109858,0.39983 1.279255,0.38808 1.406261,-0.0976 0.125886,-0.48139 0.561334,-0.56172 0.561334,-0.10356 0,0.37843 0.238001,0.39877 0.605811,0.0518 0.219901,-0.20745 0.294347,-0.20428 0.374677,0.016 0.226806,0.62184 1.320869,1.51224 1.783628,1.4516 0.291168,-0.0382 0.805426,0.20173 1.33985,0.62501 l 0.867314,0.68692 1.023395,-0.6297 c 0.562864,-0.34633 1.546141,-0.78167 2.185057,-0.96741 1.417661,-0.41212 1.285631,-0.75396 -0.423792,-1.09725 -0.630356,-0.1266 -1.724599,-0.55265 -2.431647,-0.94677 -0.707049,-0.39413 -1.937957,-0.87514 -2.735353,-1.06892 -1.463132,-0.35556 -3.003171,-1.05791 -3.003171,-1.36963 0,-0.0929 0.120208,-0.16898 0.267128,-0.16898 0.579821,0 4.457782,1.31613 5.532102,1.87752 0.626522,0.3274 1.593651,0.69434 2.149176,0.81544 1.180089,0.25724 1.619826,0.47198 2.639406,1.28893 0.813274,0.65165 1.679136,0.78568 2.441147,0.37786 1.14096,-0.61063 3.232165,0.28902 5.866484,2.52378 0.753732,0.63941 1.572683,1.27082 1.819889,1.40312 0.289893,0.15514 0.414187,0.37545 0.350096,0.62054 -0.07015,0.26825 0.04074,0.41516 0.377069,0.49957 0.557625,0.13996 6.9323,0.14266 6.9323,0.003 0,-0.0521 -0.48931,-0.33243 -1.087355,-0.62294 -0.598046,-0.29051 -1.832973,-0.94243 -2.74428,-1.4487 -3.500432,-1.94463 -5.44943,-2.80754 -7.464311,-3.3048 -2.764094,-0.68216 -4.642104,-1.63052 -5.115938,-2.58346 -0.343176,-0.69015 -0.427559,-0.73251 -1.760482,-0.88376 -0.770017,-0.0874 -1.656334,-0.17066 -1.969598,-0.18507 -0.386305,-0.0178 -0.569566,-0.1388 -0.569566,-0.37618 0,-0.500441 -0.200353,-0.633365 -0.591897,-0.392697 -0.435075,0.26743 -2.206085,-0.485 -2.519368,-1.070377 -0.119435,-0.223166 -0.356602,-0.405757 -0.527042,-0.405757 -0.170436,0 -0.359034,-0.12808 -0.419105,-0.284626 -0.06007,-0.156541 -0.639657,-0.64167 -1.28797,-1.078058 -1.173597,-0.789966 -5.631728,-5.149299 -5.631728,-5.506918 0,-0.103275 -0.396108,-0.594963 -0.88024,-1.092642 -1.441331,-1.481661 -2.548416,-2.688071 -2.70719,-2.950072 -0.08195,-0.135234 -0.245962,-1.019138 -0.364469,-1.964235 -0.1451,-1.157198 -0.427058,-2.15909 -0.863401,-3.067966 -0.532625,-1.109421 -0.663917,-1.67214 -0.737712,-3.161868 -0.06726,-1.357869 -0.161313,-1.812261 -0.37511,-1.812261 -0.382228,0 -0.364196,-1.491121 0.03131,-2.58894 0.40689,-1.129422 0.379304,-1.700657 -0.102023,-2.112783 -0.26625,-0.22797 -0.340135,-0.428482 -0.213924,-0.580559 0.123442,-0.148738 0.05028,-0.525658 -0.203382,-1.047753 -0.226674,-0.46655 -0.492125,-1.698516 -0.620419,-2.879397 -0.12333,-1.135173 -0.370271,-2.626402 -0.548756,-3.313842 -0.189159,-0.728546 -0.322776,-2.091947 -0.320342,-3.268655 0.0039,-1.881 0.04868,-2.096542 0.656275,-3.158508 0.358651,-0.626859 0.781465,-1.139746 0.939586,-1.139746 0.161917,0 0.366643,-0.339249 0.468707,-0.776682 0.09967,-0.427175 0.350004,-1.429096 0.556299,-2.22649 0.206293,-0.797393 0.460116,-2.10222 0.564052,-2.899613 0.238633,-1.830808 1.130189,-3.664368 2.701367,-5.555599 0.655002,-0.788427 1.190913,-1.603158 1.190913,-1.810515 0,-0.207357 0.224729,-1.011454 0.499399,-1.78689 0.274669,-0.77543 0.742672,-2.202093 1.040003,-3.170356 0.633994,-2.0646 0.695954,-2.176728 1.308433,-2.367868 0.309724,-0.09666 0.466008,-0.308578 0.466008,-0.631909 0,-0.771189 1.830202,-3.295981 4.516853,-6.231066 2.139788,-2.337655 2.846144,-2.952555 5.180512,-4.509759 1.486599,-0.991677 3.058409,-1.944487 3.492913,-2.117357 0.434501,-0.17287 1.135539,-0.500556 1.557859,-0.728192 1.202497,-0.648162 3.648001,-1.020743 8.118885,-1.23694 l 4.123089,-0.199379 2.813838,0.746596 c 3.232182,0.857596 4.673082,1.370255 5.205471,1.852061 0.219969,0.19907 1.300771,0.496552 2.617478,0.720441 1.343575,0.228456 2.782559,0.627222 3.589046,0.994581 1.251673,0.570144 2.788195,1.078218 9.216638,3.047616 2.892765,0.886223 6.109895,2.314769 6.109895,2.713065 0,0.51191 -2.88806,1.664263 -6.412305,2.55855 -1.41593,0.359296 -9.11802,1.839656 -11.399612,2.191035 -0.570585,0.08787 -1.18709,0.366769 -1.58976,0.719178 -0.361757,0.3166 -0.944269,0.638572 -1.294468,0.715489 -0.423569,0.09303 -0.636731,0.264784 -0.636731,0.513035 0,0.272409 -0.265673,0.439991 -0.983797,0.620564 -2.34809,0.590433 -4.03914,2.020379 -4.802685,4.061132 -0.54869,1.466514 -0.436473,2.047404 0.502547,2.601441 0.389966,0.230085 0.767604,0.60288 0.839189,0.828434 0.100724,0.317347 0.193487,0.357537 0.410176,0.177705 0.205094,-0.170214 0.39439,-0.171183 0.707485,-0.0036 0.659326,0.352859 0.528635,0.700442 -0.207973,0.553122 -0.569516,-0.113903 -0.628608,-0.07899 -0.569566,0.336564 0.04433,0.311975 0.186187,0.443338 0.433663,0.401566 0.202282,-0.03415 0.621691,0.116731 0.932018,0.335277 0.310328,0.218551 0.781336,0.464823 1.046687,0.54727 0.26535,0.08245 1.123772,0.754893 1.907598,1.494316 0.783831,0.739426 1.645049,1.368547 1.913824,1.39805 0.268771,0.0295 0.96715,0.366882 1.551953,0.749729 0.795782,0.520962 1.009108,0.761352 0.84796,0.955524 -0.256376,0.308912 -0.06589,0.691817 0.344152,0.691817 0.160737,0 0.49897,0.279606 0.751631,0.621347 0.252658,0.341741 0.632695,0.621345 0.844523,0.621345 0.442122,0 2.436571,1.909686 2.436571,2.333014 0,0.282596 0.79785,0.961953 1.96391,1.67223 0.55157,0.335981 2.150395,1.807797 4.423645,4.072252 0.928535,0.92496 2.244405,2.95207 2.412205,3.716055 0.0712,0.324048 0.85227,1.422233 1.73577,2.44041 1.96666,2.266458 2.1598,2.538389 3.64436,5.131319 1.34403,2.347473 1.99292,3.12103 2.9589,3.527356 0.70601,0.296976 0.7811,0.434536 0.48889,0.895691 -0.14669,0.2315 -0.27211,0.219007 -0.71509,-0.07125 -0.96271,-0.630785 -0.98595,-0.232436 -0.0528,0.905121 0.50258,0.61269 1.54032,2.243579 2.30608,3.624202 0.76576,1.380622 1.64749,2.80235 1.95941,3.159389 0.62911,0.720138 2.70638,4.011589 3.44632,5.460736 0.47728,0.934736 1.31782,4.52256 1.31782,5.625105 0,0.323593 -0.0932,0.588354 -0.20712,0.588354 -0.34603,0 -0.23415,0.406421 0.30732,1.116316 0.99214,1.300775 2.38518,5.253345 2.38518,6.767655 0,0.37328 -0.14432,0.83818 -0.32073,1.0331 -0.44987,0.4971 -0.24553,1.12426 1.08581,3.33266 1.11259,1.84554 1.24567,2.36185 0.48661,1.8878 -0.31022,-0.19373 -0.41043,-0.17864 -0.50836,0.0766 -0.24224,0.63126 -0.12332,0.90533 0.39283,0.90533 0.41796,0 0.62947,0.22402 1.12439,1.19092 0.33528,0.655 1.08223,1.93271 1.65991,2.83936 0.57767,0.90664 1.05031,1.76967 1.05031,1.91784 0,0.14817 -0.18446,0.42733 -0.40991,0.62037 -0.32873,0.28147 -0.38464,0.50903 -0.28229,1.14908 0.11133,0.69617 0.0711,0.81288 -0.31499,0.91384 -0.51237,0.13399 -0.58346,0.72829 -0.13194,1.10301 0.48445,0.40206 0.36872,0.62135 -0.32794,0.62135 -0.80152,0 -0.71691,0.48854 0.10129,0.58489 0.40136,0.0473 0.53541,0.15692 0.45332,0.37083 -0.0732,0.19082 0.33292,0.74353 1.0925,1.48678 1.47434,1.44263 2.18022,2.71904 1.98791,3.59462 -0.0747,0.3402 -0.26687,0.66883 -0.427,0.73028 -0.32978,0.12655 -0.40194,0.89586 -0.084,0.89586 0.11391,0 0.20712,0.2682 0.20712,0.59599 0,0.32779 0.1398,0.71201 0.31067,0.85382 0.17087,0.14181 0.31067,0.39086 0.31067,0.55343 0,0.16258 0.14461,0.57524 0.32135,0.91702 0.36207,0.70016 0.21788,1.52145 -0.2365,1.34709 -0.20167,-0.0774 -0.29196,0.0431 -0.29196,0.3895 0,0.73689 0.44282,1.58995 0.76179,1.46755 0.29692,-0.11394 0.33848,0.13723 0.14324,0.86574 -0.16657,0.62155 -0.40031,0.58837 -1.27686,-0.18125 -0.40545,-0.35599 -1.04215,-0.77468 -1.41489,-0.93042 -0.41235,-0.17229 -0.80728,-0.55621 -1.00861,-0.98047 -0.18199,-0.38352 -0.98936,-1.49511 -1.79415,-2.4702 -1.39452,-1.68961 -1.4956,-1.76764 -2.15188,-1.66114 -0.86486,0.14034 -1.80659,-0.41125 -3.03582,-1.77815 -0.76127,-0.84654 -1.00849,-0.99327 -1.71772,-1.01955 -0.45565,-0.0169 -1.08477,-0.0868 -1.39803,-0.15542 -0.47873,-0.10484 -0.56957,-0.056 -0.56957,0.30596 0,0.23688 -0.0981,0.43069 -0.21789,0.43069 -0.11983,0 -0.31536,0.2796 -0.43449,0.62134 -0.25515,0.73194 -0.48807,0.78515 -0.80932,0.18488 -0.17083,-0.31919 -0.29522,-0.37484 -0.46294,-0.20711 -0.12615,0.12615 -0.38842,0.22935 -0.58283,0.22935 -0.29866,0 -0.37692,0.31255 -0.50458,2.01531 l -0.15109,2.01531 1.16734,1.04406 c 0.96176,0.86019 1.16734,1.16183 1.16734,1.71277 0,0.65018 0.2587,0.8808 0.51779,0.46158 0.0704,-0.11391 0.2044,-0.20711 0.29777,-0.20711 0.24437,0 0.71825,1.22773 0.54192,1.40405 -0.0814,0.0814 -0.62989,-0.1262 -1.21878,-0.46144 -0.5889,-0.33523 -1.36033,-0.75437 -1.71429,-0.9314 -0.35397,-0.17704 -0.72678,-0.50556 -0.82846,-0.73005 -0.13042,-0.28792 -0.55103,-0.48358 -1.42758,-0.66409 -1.87189,-0.38549 -2.17471,-0.35731 -2.17471,0.20237 0,0.6366 -0.37268,0.97345 -1.077,0.97345 -0.71986,0 -0.7602,-0.32409 -0.0621,-0.49928 0.77018,-0.1933 0.62862,-0.45406 -0.35968,-0.66254 -0.57338,-0.12096 -0.9015,-0.30983 -0.94678,-0.54499 -0.0576,-0.29936 0.0377,-0.33849 0.56679,-0.23267 0.85055,0.17011 0.85926,-0.35461 0.0199,-1.19404 -0.58868,-0.58868 -0.67192,-0.60998 -1.8592,-0.47565 -1.20628,0.13648 -1.24903,0.12458 -1.44976,-0.40337 -0.30331,-0.79779 -0.79024,-0.68268 -0.98437,0.23269 -0.26948,1.27062 -0.20498,4.2497 0.0942,4.34942 0.14239,0.0475 0.25889,0.30976 0.25889,0.58287 0,0.35696 0.14559,0.53312 0.51779,0.62655 0.42499,0.10666 0.51779,0.25586 0.51779,0.83241 0,0.84307 0.35774,0.93342 0.52618,0.13288 0.26559,-1.26227 1.0101,-1.74369 1.24559,-0.80543 0.0713,0.28411 0.26104,0.56698 0.42163,0.62861 0.16059,0.0616 0.29198,0.38316 0.29198,0.71452 0,0.33137 0.13981,0.71852 0.31068,0.86033 0.25908,0.21502 0.31067,0.18687 0.31067,-0.16954 0,-0.58994 0.34221,-0.7496 0.47971,-0.2238 0.0851,0.32545 0.21717,0.39727 0.54133,0.29438 0.25268,-0.0802 0.42877,-0.0444 0.42877,0.0873 0,0.14591 0.44027,0.18998 1.26979,0.1271 l 1.26978,-0.0963 -0.47743,0.5082 -0.47743,0.5082 h 0.51431 c 0.28287,0 0.69522,0.13684 0.91634,0.30409 0.22112,0.16725 0.61174,0.30705 0.86805,0.31068 0.92914,0.0131 0.43592,0.40589 -0.82002,0.65297 -1.325,0.26068 -1.54567,0.41943 -2.668,1.91925 -0.77316,1.03321 -0.78366,1.65986 -0.0329,1.96513 0.90193,0.36675 2.68639,0.64711 4.1188,0.64711 0.74057,0 1.31797,0.0907 1.31797,0.20712 0,0.23778 -3.89413,0.24959 -4.8672,0.0148 z M 91.73174,127.5621 c 0,-0.10855 -0.106703,-0.43156 -0.237122,-0.71779 -0.281882,-0.61867 0.104304,-1.20854 2.316222,-3.53782 0.75721,-0.79739 1.7409,-1.99336 2.18599,-2.6577 0.445085,-0.66434 0.900345,-1.33749 1.011695,-1.49588 0.29113,-0.41412 -0.0167,-0.6456 -1.642895,-1.23545 -0.77493,-0.28107 -1.85508,-0.78555 -2.400333,-1.12104 -0.545251,-0.3355 -1.395365,-0.71601 -1.889144,-0.84558 -1.818404,-0.47718 -2.741999,-0.85676 -3.46797,-1.42529 -2.129497,-1.66765 -4.368171,-2.74271 -4.368171,-2.09769 0,0.12854 -1.309557,0.15466 -3.600243,0.0718 -3.489203,-0.12619 -3.607276,-0.11707 -3.828272,0.29586 -0.166664,0.31142 -0.521544,0.46422 -1.318744,0.56784 -1.217642,0.15826 -3.265427,0.99783 -3.265427,1.33878 0,0.46208 -1.360278,2.28003 -1.7087,2.2836 -0.283628,0.003 -0.362453,0.18232 -0.362453,0.82498 0,0.62056 0.154718,0.99747 0.633124,1.54234 0.349102,0.39761 0.758563,0.67296 0.912739,0.6138 0.318497,-0.12222 2.782085,1.48931 2.951448,1.93065 0.180909,0.47145 2.303936,1.41582 4.280342,1.904 1.011607,0.24987 2.124752,0.60193 2.47365,0.78235 0.348901,0.18042 1.526344,0.45271 2.616541,0.60509 1.417934,0.19818 2.836241,0.60178 4.982496,1.41784 2.998549,1.14011 3.725227,1.32646 3.725227,0.9553 z"
       id="path1481" /></g></svg>
