<svg xmlns="http://www.w3.org/2000/svg" xmlns:xlink="http://www.w3.org/1999/xlink" version="1.1" x="0px" y="0px" viewBox="0 0 50 62.5" enable-background="new 0 0 50 50" xml:space="preserve"><g><path fill-rule="evenodd" clip-rule="evenodd" d="M38.748,9.761c-0.637,0.096-1.232-0.342-1.327-0.979   c-0.096-0.637,0.342-1.231,0.979-1.328c0.637-0.096,1.231,0.342,1.328,0.98C39.824,9.072,39.385,9.666,38.748,9.761 M37.12,4.379   c-4.686,0.709-7.09,5.558-8.851,9.101c-0.453,0.91-0.859,1.734-1.248,2.358c-2.057,3.286-4.985,5.909-8.082,8.684   c-3.076,2.753-6.239,5.587-8.778,9.275c2.097-0.754,4.56-1.429,6.192-2.13c2.339-1.005,4.913-1.782,7.06-3.006   c1.828-1.042,3.51-2.224,4.908-3.645c0.882-0.895,1.614-1.783,2.178-2.634c0.484-0.73,0.924-1.602,1.255-2.417   c0.235-0.578,0.872-0.73,0.934-0.032c0.019,0.226,0.004,0.478-0.036,0.748c-0.13,0.865-0.529,1.905-0.971,2.781   c-0.626,1.24-1.461,2.259-2.452,3.23c-1.407,1.381-3.06,2.524-4.841,3.531c-2.24,1.266-4.909,2.06-7.325,3.098   c-2.026,0.872-5.128,1.641-7.323,2.552c-0.6,0.249-1.122,0.508-1.663,0.85c-2.458,1.568-4.975,3.557-7.787,6.152   c-0.474,0.435-0.349,1.209,0.234,1.479c2.073,0.954,3.983,1.367,5.761,1.367c4.943,0,8.863-3.203,12.378-6.94   c2.989-0.04,5.785-0.438,8.319-1.171l0.542,2.978l-1.889,0c-0.496,0-0.901,0.402-0.901,0.9c0,0.497,0.403,0.901,0.901,0.901   l7.331,0.002c0.496,0,0.899-0.403,0.899-0.9c0-0.498-0.401-0.901-0.899-0.901l-3.609-0.001l-0.647-3.545   c3.072-1.132,5.692-2.797,7.709-4.942c3.454-3.678,5.021-8.55,4.652-14.48c-0.125-2.036,0.472-3.526,1.047-4.968   c0.26-0.65,0.513-1.282,0.677-1.926C44,7.742,46.787,6.607,49.817,5.811c0.228-0.058,0.248-0.372,0.033-0.463   c-3.277-1.381-7.711-1.03-11.427-1.022C37.979,4.326,37.563,4.314,37.12,4.379z"/></g><text x="0" y="65" fill="#000000" font-size="5px" font-weight="bold" font-family="'Helvetica Neue', Helvetica, Arial-Unicode, Arial, Sans-serif">Created by Georgiana Ionescu</text><text x="0" y="70" fill="#000000" font-size="5px" font-weight="bold" font-family="'Helvetica Neue', Helvetica, Arial-Unicode, Arial, Sans-serif">from the Noun Project</text></svg>